grf
version=1
nRows=16
nColumns=28
inDegrees=no
endheader
time	ground_force_1_vx	ground_force_1_vy	ground_force_1_vz	ground_force_1_px	ground_force_1_py	ground_force_1_pz	ground_moment_1_mx	ground_moment_1_my	ground_moment_1_mz	ground_force_2_vx	ground_force_2_vy	ground_force_2_vz	ground_force_2_px	ground_force_2_py	ground_force_2_pz	ground_moment_2_mx	ground_moment_2_my	ground_moment_2_mz	ground_force_3_vx	ground_force_3_vy	ground_force_3_vz	ground_force_3_px	ground_force_3_py	ground_force_3_pz	ground_moment_3_mx	ground_moment_3_my	ground_moment_3_mz
      0.45000000	      0.72738689	      0.20191164	      0.87105363	    185.52230223	  -1415.39415657	      2.37549011	      0.01789921	      0.06472377	     35.46513838	     19.55735421	     30.18971105	   -681.74415177	    466.62689010	  -1806.38554980	      0.10078611	      0.20995848	      2.71538005	  -3253.76773771	      1.58175351	     -0.77438596	      4.63025037	    450.11449746	   -243.87218854	      0.29859412	     -0.14461912	      1.06236148	    517.30645539
      0.46000000	      0.54488983	      0.11971176	      1.88803972	    378.82457323	  -1314.99411940	      2.09470096	      0.05518915	      0.19956467	    109.35069211	     20.91291654	     36.27474953	   -730.41548254	    467.12478340	  -1803.35881498	      0.10334415	      0.23626654	      3.05562048	  -3661.46880048	      1.70846957	     -0.87336877	      4.94482519	    477.83426125	   -309.76675967	      0.44166727	     -0.09728037	      0.71461447	    347.97447602
      0.47000000	      0.35564287	      0.27478969	      1.23645517	    350.92959025	  -1478.47040758	      2.40712323	      0.02648025	      0.09575292	     52.46744291	     22.74099894	     43.76964173	   -782.18124654	    467.63952688	  -1800.81511886	      0.10550017	      0.25959982	      3.35738843	  -4023.06931521	      1.62746773	     -0.64635148	      5.10931950	    464.04482606	   -297.14152259	      0.41188457	     -0.12356340	      0.90768768	    441.98957163
      0.48000000	      0.56238591	      0.27196854	      1.62340431	    406.43045588	  -1315.72707442	      2.08210595	      0.06233082	      0.22538906	    123.50106621	     23.83402961	     52.37941060	   -837.82342863	    468.02329780	  -1798.33973324	      0.10759073	      0.28622295	      3.70170368	  -4435.65312535	      1.64905198	     -0.70919266	      4.44438007	    496.91812275	   -291.94775112	      0.41040855	     -0.12973678	      0.95303692	    464.07193793
      0.49000000	      0.43956685	      0.17782418	      1.63010380	    351.12639857	  -1318.17753356	      2.11448992	      0.04837433	      0.17492221	     95.84795078	     24.40736646	     63.29417244	   -894.19770110	    468.44984642	  -1796.06563670	      0.10951606	      0.31640426	      4.09203661	  -4903.37869971	      1.78467784	     -0.84385802	      4.98263270	    448.54233803	   -304.33601636	      0.42232557	     -0.12971846	      0.95290231	    464.00638803
      0.50000000	      0.44511503	     -0.00062061	      1.18624433	    412.06527630	  -1297.55554907	      2.04609909	      0.05068221	      0.18326753	    100.42073998	     25.70492210	     77.71823550	   -948.81126280	    468.56932658	  -1794.01525992	      0.11123488	      0.32977234	      4.26492523	  -5110.54653834	      1.97512702	     -0.53392810	      4.94241731	    468.27450657	   -248.03733275	      0.31222467	     -0.16756828	      1.23094435	    599.39622038
      0.51000000	      0.52068682	      0.09192289	      1.85442729	    460.07553494	  -1321.76534196	      2.06605117	      0.03464763	      0.12528626	     68.65012543	     29.51710381	     92.39189049	  -1000.70592653	    468.70312122	  -1792.18563450	      0.11277040	      0.32614640	      4.21803122	  -5054.35469619	      1.74194557	     -0.71015441	      4.59941733	    491.50224815	   -306.65050239	      0.43908864	     -0.11468432	      0.84246262	    410.22887295
      0.52000000	      0.64681052	      0.20831550	      1.37733536	    433.04123824	  -1453.38106539	      2.31989362	     -0.00366253	     -0.01324375	     -7.25686386	     33.47377037	    109.40023137	  -1049.53755995	    468.74158261	  -1790.11725979	      0.11449901	      0.29455636	      3.80947917	  -4564.79763176	      1.96266829	     -0.78744523	      4.10721208	    453.08435434	   -285.03117437	      0.38395014	     -0.13304014	      0.97730318	    475.88815531
      0.53000000	      0.55480918	      0.10342152	      1.90016352	    431.54830995	  -1369.44183857	      2.16745828	      0.03276900	      0.11849314	     64.92786145	     38.13973568	    126.83723756	  -1091.28551273	    468.91304054	  -1788.26670014	      0.11605443	      0.26397740	      3.41400340	  -4090.90952620	      1.69176783	     -0.65788884	      4.45836797	    458.01753958	   -303.44521015	      0.42314508	     -0.12734219	      0.93544643	    455.50642168
      0.54000000	      0.51231509	      0.18253134	      1.67014716	    423.66895844	  -1366.14000667	      2.16540915	      0.00855646	      0.03094027	     16.95360249	     40.77313230	    145.48878147	  -1125.43343031	    469.08111537	  -1786.24342063	      0.11775377	      0.21441195	      2.77297645	  -3322.78397655	      1.60766947	     -0.68458761	      4.55107131	    501.25644938	   -324.23534863	      0.47792850	     -0.13022597	      0.95663044	    465.82176753
      0.55000000	      0.44503987	      0.20138422	      1.89738976	    422.47785141	  -1325.25640186	      2.09139785	      0.05318524	      0.19231850	    105.38018468	     42.81976667	    163.05963019	  -1148.55521359	    469.19361455	  -1784.10447197	      0.11954606	      0.17038910	      2.20363164	  -2640.55322815	      1.85693752	     -0.61260818	      5.49466698	    452.53385239	   -272.63165903	      0.35833209	     -0.11100965	      0.81546876	    397.08447579
      0.56000000	      0.59832899	      0.22239246	      1.45793342	    449.35497874	  -1444.02819590	      2.29459114	     -0.01091573	     -0.03947141	    -21.62820905	     45.43373558	    179.81617576	  -1167.03226434	    469.40262696	  -1782.11780232	      0.12121749	      0.11484552	      1.48528996	  -1779.78348389	      1.70000337	     -0.76466743	      5.20059599	    435.99303366	   -280.29914481	      0.36945417	     -0.15057609	      1.10612092	    538.61468482
      0.57000000	      0.73184400	      0.03714212	      1.87135719	    452.20981916	  -1377.26539282	      2.17130841	      0.01494130	      0.05402793	     29.60439558	     46.98873689	    199.03179011	  -1169.16047393	    469.56912856	  -1780.03257986	      0.12296842	      0.04804843	      0.62140737	   -744.61593217	      1.74340928	     -0.84831936	      5.05211924	    487.79904888	   -344.72768929	      0.51625022	     -0.09255684	      0.67991578	    331.07828887
      0.58000000	      0.68772677	      0.11369379	      1.97039058	    432.78944458	  -1357.79113216	      2.14556938	     -0.00737935	     -0.02668383	    -14.62130252	     45.97413985	    219.25714330	  -1154.43227037	    470.06891681	  -1777.84384909	      0.12482724	     -0.00716977	     -0.09272616	    111.11129227	      1.73910633	     -0.72898809	      5.69558484	    472.06501641	   -291.51999479	      0.40258211	     -0.09196859	      0.67559455	    328.97411056
      0.59000000	     -2.91992282	     25.71288019	    -48.82697996	    625.45568931	  -1194.23708926	      1.74984537	     -0.06030448	     -0.21806176	   -119.48610430	     40.51466193	    236.29393134	  -1124.15315138	    470.74439558	  -1775.82067085	      0.12655924	     -0.01864445	     -0.24112745	    288.93661992	      1.41990516	     -0.51528289	      5.07846847	    473.62592174	   -309.20738149	      0.43934201	     -0.08516609	      0.62562391	    304.64139734
      0.60000000	     20.48910664	     79.38966967	   -216.16586917	    594.76746049	  -1188.96427265	      1.75571081	      0.43078118	      1.55771031	    853.54137582	     28.70534674	    250.76066069	  -1077.30293879	    471.83674807	  -1773.96165710	      0.12818114	      0.02809739	      0.36338174	   -435.43067893	      0.98869263	     -0.50055686	      4.30680530	    508.77096505	   -256.78497396	      0.34151045	     -0.11500755	      0.84483705	    411.38507801
